<svg width="20" height="20" viewBox="0 0 20 20" fill="none" xmlns="http://www.w3.org/2000/svg">
<g clip-path="url(#clip0_583_101)">
<path fill-rule="evenodd" clip-rule="evenodd" d="M10 0C12.7613 0 15.2617 1.11953 17.0711 2.92891C18.8805 4.73828 20 7.23867 20 10C20 12.7613 18.8805 15.2617 17.0711 17.0711C15.2617 18.8805 12.7613 20 10 20C7.23867 20 4.73828 18.8805 2.92891 17.0711C1.11953 15.2617 0 12.7613 0 10C0 7.23867 1.11953 4.73828 2.92891 2.92891C4.73828 1.11953 7.23867 0 10 0ZM9.60156 7.49531C9.32539 7.49336 9.08945 7.39648 8.89062 7.2C8.69258 7.0043 8.59531 6.76602 8.59531 6.48711C8.59531 6.21328 8.69258 5.97695 8.89062 5.78086C9.08945 5.58477 9.32539 5.48594 9.60156 5.48594C9.87305 5.48594 10.1094 5.58477 10.3078 5.78086C10.5086 5.97695 10.6074 6.21328 10.6074 6.48711C10.6074 6.67148 10.5605 6.84141 10.4684 6.99258C10.3762 7.14609 10.2555 7.26875 10.1047 7.35859C9.95352 7.44844 9.78555 7.49336 9.60156 7.49531ZM10.693 13.3691H11.8316V14.5145H8.16797V13.3691H9.29141V9.76211H8.16797V8.6168H10.693V13.3691Z" fill="white"/>
</g>
<defs>
<clipPath id="clip0_583_101">
<rect width="20" height="20" fill="white"/>
</clipPath>
</defs>
</svg>
