<svg width="20" height="20" viewBox="0 0 20 20" fill="none" xmlns="http://www.w3.org/2000/svg">
<path d="M12.2492 5.23588H10.142V8.66231H11.4458L12.2492 5.23588ZM9.85152 0C10.2851 0 10.6367 0.351508 10.6367 0.785154C10.6367 0.950211 10.5857 1.10332 10.4987 1.22973H10.7124V1.23012C10.7294 1.23012 10.7464 1.23625 10.7599 1.2487L13.5847 3.86339C13.5934 3.86994 13.6004 3.87842 13.6053 3.88816C13.6101 3.89791 13.6126 3.90864 13.6126 3.91952V4.9135C13.6126 4.95234 13.5811 4.98385 13.5423 4.98385H13.0286L11.9282 9.63161C11.9266 9.64903 11.9185 9.66521 11.9055 9.67699C11.8926 9.68877 11.8757 9.69529 11.8582 9.69528H11.0765V9.76075C11.0765 10.2914 10.7461 10.7477 10.2809 10.9358V20H9.33445V10.9358C8.8693 10.7477 8.53891 10.2915 8.53891 9.76075V9.69528H7.75446C7.73758 9.69525 7.72127 9.68916 7.70851 9.67812C7.69575 9.66708 7.68738 9.65182 7.68493 9.63512C7.46846 8.16448 6.93483 6.47163 6.59952 4.98385H6.07035C6.06111 4.98385 6.05196 4.98203 6.04343 4.97849C6.03489 4.97496 6.02714 4.96978 6.0206 4.96324C6.01407 4.95671 6.00889 4.94896 6.00535 4.94042C6.00182 4.93189 6 4.92274 6 4.9135V3.91952C6.00016 3.90059 6.00777 3.8817 6.0228 3.86788L8.86098 1.25163C8.86754 1.24471 8.87545 1.2392 8.88422 1.23543C8.89298 1.23166 8.90242 1.22973 8.91196 1.22973H9.20433C9.11424 1.099 9.06611 0.943922 9.06636 0.785154C9.06636 0.351508 9.41787 0 9.85152 0ZM9.48557 5.23588H7.3741L8.14633 8.66231H9.48557V5.23588Z" fill="white"/>
</svg>
